<svg class="header__button-image" viewBox="0 0 20 20" width="30" height="30" fill="#ffffff" xmlns="http://www.w3.org/2000/svg">
                    <path d="M14.6627 17.5051H14.6394C11.438 17.4263 8.38293 16.1481 6.07937 13.9235C3.85397 11.622 2.57495 8.56811 2.49594 5.36765C2.49123 4.91931 2.66726 4.48795 2.98437 4.17098L5.24604 1.91098C5.57145 1.58566 6.09895 1.58566 6.42437 1.91098L9.7577 5.24431C10.083 5.56973 10.083 6.09723 9.7577 6.42265L8.4277 7.75015C8.67438 8.67175 9.12876 9.52465 9.75604 10.2435C10.4736 10.871 11.3254 11.3257 12.246 11.5726L13.5794 10.2443C13.9048 9.919 14.4323 9.919 14.7577 10.2443L18.091 13.5776C18.4164 13.9031 18.4164 14.4306 18.091 14.756L15.8294 17.0168C15.521 17.3284 15.1011 17.5042 14.6627 17.5051ZM5.83354 3.67931H5.82937L4.1627 5.34931C4.23066 8.11486 5.33464 10.7541 7.25604 12.7443C9.2464 14.665 11.8851 15.7689 14.6502 15.8376L16.3227 14.1668L14.1627 12.0126L13.0852 13.0893C12.9311 13.2452 12.7211 13.3331 12.5019 13.3335C12.4433 13.3335 12.385 13.3274 12.3277 13.3151C10.9391 13.008 9.64969 12.3573 8.5777 11.4226C7.64308 10.3507 6.99238 9.06129 6.6852 7.67265C6.62726 7.39662 6.71286 7.11001 6.9127 6.91098L7.98937 5.83348L5.83354 3.67931Z" fill="#ffffff"></path>
                </svg>